%TF.GenerationSoftware,KiCad,Pcbnew,5.0.2-bee76a0~70~ubuntu18.04.1*%
%TF.CreationDate,2019-04-02T12:12:55+02:00*%
%TF.ProjectId,HVPS_SMD,48565053-5f53-44d4-942e-6b696361645f,rev?*%
%TF.SameCoordinates,Original*%
%TF.FileFunction,Copper,L2,Bot*%
%TF.FilePolarity,Positive*%
%FSLAX46Y46*%
G04 Gerber Fmt 4.6, Leading zero omitted, Abs format (unit mm)*
G04 Created by KiCad (PCBNEW 5.0.2-bee76a0~70~ubuntu18.04.1) date Di 02 Apr 2019 12:12:55 CEST*
%MOMM*%
%LPD*%
G01*
G04 APERTURE LIST*
%ADD10C,1.879600*%
%ADD11C,0.685800*%
%ADD12C,0.800000*%
%ADD13C,0.254000*%
G04 APERTURE END LIST*
D10*
X213360000Y-81280000D03*
X213360000Y-78740000D03*
X180340000Y-66040000D03*
X180340000Y-63500000D03*
X180340000Y-71120000D03*
X180340000Y-73660000D03*
D11*
X187452000Y-67183000D03*
X188468000Y-67056000D03*
X189357000Y-67056000D03*
X188633009Y-77597000D03*
X185674000Y-79756000D03*
X182372000Y-81915000D03*
X196469000Y-80391000D03*
X196469000Y-72009000D03*
X186944000Y-75438000D03*
X186944000Y-74803000D03*
X186944000Y-74041000D03*
X186944000Y-73279000D03*
X210693000Y-72009000D03*
X210693000Y-71374000D03*
X210820000Y-70739000D03*
X211709000Y-81788000D03*
X211074000Y-82423000D03*
X210185000Y-82423000D03*
X209423000Y-82423000D03*
X208661000Y-82296000D03*
X185674000Y-71755000D03*
X193929000Y-73728580D03*
X188468000Y-72771000D03*
D12*
X185674000Y-71755000D02*
X182245000Y-71755000D01*
X182245000Y-71755000D02*
X180340000Y-73660000D01*
X188468000Y-72771000D02*
X192971420Y-72771000D01*
X192971420Y-72771000D02*
X193929000Y-73728580D01*
D13*
G36*
X202311000Y-74041000D02*
X202320667Y-74089601D01*
X202348197Y-74130803D01*
X202389399Y-74158333D01*
X202438000Y-74168000D01*
X210693000Y-74168000D01*
X210741601Y-74158333D01*
X210782803Y-74130803D01*
X210810333Y-74089601D01*
X210820000Y-74041000D01*
X210820000Y-61341000D01*
X215519000Y-61341000D01*
X215519000Y-83439000D01*
X179451000Y-83439000D01*
X179451000Y-78477277D01*
X212039200Y-78477277D01*
X212039200Y-79002723D01*
X212240280Y-79488173D01*
X212611827Y-79859720D01*
X213097277Y-80060800D01*
X213622723Y-80060800D01*
X214108173Y-79859720D01*
X214479720Y-79488173D01*
X214680800Y-79002723D01*
X214680800Y-78477277D01*
X214479720Y-77991827D01*
X214108173Y-77620280D01*
X213622723Y-77419200D01*
X213097277Y-77419200D01*
X212611827Y-77620280D01*
X212240280Y-77991827D01*
X212039200Y-78477277D01*
X179451000Y-78477277D01*
X179451000Y-74638893D01*
X179591827Y-74779720D01*
X180077277Y-74980800D01*
X180602723Y-74980800D01*
X181088173Y-74779720D01*
X181459720Y-74408173D01*
X181660800Y-73922723D01*
X181660800Y-73443700D01*
X182333500Y-72771000D01*
X187671700Y-72771000D01*
X187732315Y-73075731D01*
X187904931Y-73334069D01*
X188163269Y-73506685D01*
X188391082Y-73552000D01*
X192647920Y-73552000D01*
X193431139Y-74335219D01*
X193624269Y-74464265D01*
X193929000Y-74524880D01*
X194233730Y-74464265D01*
X194492069Y-74291649D01*
X194664685Y-74033310D01*
X194725300Y-73728580D01*
X194664685Y-73423849D01*
X194535639Y-73230719D01*
X193578061Y-72273141D01*
X193534489Y-72207931D01*
X193276151Y-72035315D01*
X193048338Y-71990000D01*
X193048334Y-71990000D01*
X192971420Y-71974701D01*
X192894506Y-71990000D01*
X188391082Y-71990000D01*
X188163269Y-72035315D01*
X187904931Y-72207931D01*
X187732315Y-72466269D01*
X187671700Y-72771000D01*
X182333500Y-72771000D01*
X182568501Y-72536000D01*
X185750918Y-72536000D01*
X185978731Y-72490685D01*
X186237069Y-72318069D01*
X186409685Y-72059731D01*
X186470300Y-71755000D01*
X186409685Y-71450269D01*
X186237069Y-71191931D01*
X185978731Y-71019315D01*
X185750918Y-70974000D01*
X182321914Y-70974000D01*
X182245000Y-70958701D01*
X182168086Y-70974000D01*
X182168082Y-70974000D01*
X181940269Y-71019315D01*
X181922632Y-71031100D01*
X181681931Y-71191931D01*
X181660800Y-71223556D01*
X181660800Y-70857277D01*
X181459720Y-70371827D01*
X181088173Y-70000280D01*
X180602723Y-69799200D01*
X180077277Y-69799200D01*
X179591827Y-70000280D01*
X179451000Y-70141107D01*
X179451000Y-64478893D01*
X179591827Y-64619720D01*
X180077277Y-64820800D01*
X180602723Y-64820800D01*
X181088173Y-64619720D01*
X181459720Y-64248173D01*
X181660800Y-63762723D01*
X181660800Y-63237277D01*
X181459720Y-62751827D01*
X181088173Y-62380280D01*
X180602723Y-62179200D01*
X180077277Y-62179200D01*
X179591827Y-62380280D01*
X179451000Y-62521107D01*
X179451000Y-61341000D01*
X202311000Y-61341000D01*
X202311000Y-74041000D01*
X202311000Y-74041000D01*
G37*
X202311000Y-74041000D02*
X202320667Y-74089601D01*
X202348197Y-74130803D01*
X202389399Y-74158333D01*
X202438000Y-74168000D01*
X210693000Y-74168000D01*
X210741601Y-74158333D01*
X210782803Y-74130803D01*
X210810333Y-74089601D01*
X210820000Y-74041000D01*
X210820000Y-61341000D01*
X215519000Y-61341000D01*
X215519000Y-83439000D01*
X179451000Y-83439000D01*
X179451000Y-78477277D01*
X212039200Y-78477277D01*
X212039200Y-79002723D01*
X212240280Y-79488173D01*
X212611827Y-79859720D01*
X213097277Y-80060800D01*
X213622723Y-80060800D01*
X214108173Y-79859720D01*
X214479720Y-79488173D01*
X214680800Y-79002723D01*
X214680800Y-78477277D01*
X214479720Y-77991827D01*
X214108173Y-77620280D01*
X213622723Y-77419200D01*
X213097277Y-77419200D01*
X212611827Y-77620280D01*
X212240280Y-77991827D01*
X212039200Y-78477277D01*
X179451000Y-78477277D01*
X179451000Y-74638893D01*
X179591827Y-74779720D01*
X180077277Y-74980800D01*
X180602723Y-74980800D01*
X181088173Y-74779720D01*
X181459720Y-74408173D01*
X181660800Y-73922723D01*
X181660800Y-73443700D01*
X182333500Y-72771000D01*
X187671700Y-72771000D01*
X187732315Y-73075731D01*
X187904931Y-73334069D01*
X188163269Y-73506685D01*
X188391082Y-73552000D01*
X192647920Y-73552000D01*
X193431139Y-74335219D01*
X193624269Y-74464265D01*
X193929000Y-74524880D01*
X194233730Y-74464265D01*
X194492069Y-74291649D01*
X194664685Y-74033310D01*
X194725300Y-73728580D01*
X194664685Y-73423849D01*
X194535639Y-73230719D01*
X193578061Y-72273141D01*
X193534489Y-72207931D01*
X193276151Y-72035315D01*
X193048338Y-71990000D01*
X193048334Y-71990000D01*
X192971420Y-71974701D01*
X192894506Y-71990000D01*
X188391082Y-71990000D01*
X188163269Y-72035315D01*
X187904931Y-72207931D01*
X187732315Y-72466269D01*
X187671700Y-72771000D01*
X182333500Y-72771000D01*
X182568501Y-72536000D01*
X185750918Y-72536000D01*
X185978731Y-72490685D01*
X186237069Y-72318069D01*
X186409685Y-72059731D01*
X186470300Y-71755000D01*
X186409685Y-71450269D01*
X186237069Y-71191931D01*
X185978731Y-71019315D01*
X185750918Y-70974000D01*
X182321914Y-70974000D01*
X182245000Y-70958701D01*
X182168086Y-70974000D01*
X182168082Y-70974000D01*
X181940269Y-71019315D01*
X181922632Y-71031100D01*
X181681931Y-71191931D01*
X181660800Y-71223556D01*
X181660800Y-70857277D01*
X181459720Y-70371827D01*
X181088173Y-70000280D01*
X180602723Y-69799200D01*
X180077277Y-69799200D01*
X179591827Y-70000280D01*
X179451000Y-70141107D01*
X179451000Y-64478893D01*
X179591827Y-64619720D01*
X180077277Y-64820800D01*
X180602723Y-64820800D01*
X181088173Y-64619720D01*
X181459720Y-64248173D01*
X181660800Y-63762723D01*
X181660800Y-63237277D01*
X181459720Y-62751827D01*
X181088173Y-62380280D01*
X180602723Y-62179200D01*
X180077277Y-62179200D01*
X179591827Y-62380280D01*
X179451000Y-62521107D01*
X179451000Y-61341000D01*
X202311000Y-61341000D01*
X202311000Y-74041000D01*
M02*
