%TF.GenerationSoftware,KiCad,Pcbnew,5.0.2-bee76a0~70~ubuntu18.04.1*%
%TF.CreationDate,2019-09-23T12:17:33+02:00*%
%TF.ProjectId,HVPS_SMD,48565053-5f53-44d4-942e-6b696361645f,rev?*%
%TF.SameCoordinates,Original*%
%TF.FileFunction,Soldermask,Top*%
%TF.FilePolarity,Negative*%
%FSLAX46Y46*%
G04 Gerber Fmt 4.6, Leading zero omitted, Abs format (unit mm)*
G04 Created by KiCad (PCBNEW 5.0.2-bee76a0~70~ubuntu18.04.1) date Mo 23 Sep 2019 12:17:33 CEST*
%MOMM*%
%LPD*%
G01*
G04 APERTURE LIST*
%ADD10C,0.127000*%
G04 APERTURE END LIST*
D10*
G36*
X184819000Y-82415000D02*
X184219000Y-82415000D01*
X184219000Y-81415000D01*
X184819000Y-81415000D01*
X184819000Y-82415000D01*
X184819000Y-82415000D01*
G37*
G36*
X183319000Y-82415000D02*
X182719000Y-82415000D01*
X182719000Y-81415000D01*
X183319000Y-81415000D01*
X183319000Y-82415000D01*
X183319000Y-82415000D01*
G37*
G36*
X213648713Y-80328237D02*
X213828845Y-80402850D01*
X213990964Y-80511174D01*
X214128826Y-80649036D01*
X214237150Y-80811155D01*
X214311763Y-80991287D01*
X214349800Y-81182512D01*
X214349800Y-81377488D01*
X214311763Y-81568713D01*
X214237150Y-81748845D01*
X214128826Y-81910964D01*
X213990964Y-82048826D01*
X213828845Y-82157150D01*
X213648713Y-82231763D01*
X213457488Y-82269800D01*
X213262512Y-82269800D01*
X213071287Y-82231763D01*
X212891155Y-82157150D01*
X212729036Y-82048826D01*
X212591174Y-81910964D01*
X212482850Y-81748845D01*
X212408237Y-81568713D01*
X212370200Y-81377488D01*
X212370200Y-81182512D01*
X212408237Y-80991287D01*
X212482850Y-80811155D01*
X212591174Y-80649036D01*
X212729036Y-80511174D01*
X212891155Y-80402850D01*
X213071287Y-80328237D01*
X213262512Y-80290200D01*
X213457488Y-80290200D01*
X213648713Y-80328237D01*
X213648713Y-80328237D01*
G37*
G36*
X211231000Y-81957000D02*
X208631000Y-81957000D01*
X208631000Y-80857000D01*
X211231000Y-80857000D01*
X211231000Y-81957000D01*
X211231000Y-81957000D01*
G37*
G36*
X195548720Y-80075240D02*
X194849280Y-80075240D01*
X194849280Y-77775600D01*
X195548720Y-77775600D01*
X195548720Y-80075240D01*
X195548720Y-80075240D01*
G37*
G36*
X193008720Y-80075240D02*
X192309280Y-80075240D01*
X192309280Y-77775600D01*
X193008720Y-77775600D01*
X193008720Y-80075240D01*
X193008720Y-80075240D01*
G37*
G36*
X194278720Y-80075240D02*
X193579280Y-80075240D01*
X193579280Y-77775600D01*
X194278720Y-77775600D01*
X194278720Y-80075240D01*
X194278720Y-80075240D01*
G37*
G36*
X196818720Y-80075240D02*
X196119280Y-80075240D01*
X196119280Y-77775600D01*
X196818720Y-77775600D01*
X196818720Y-80075240D01*
X196818720Y-80075240D01*
G37*
G36*
X213648713Y-77788237D02*
X213828845Y-77862850D01*
X213990964Y-77971174D01*
X214128826Y-78109036D01*
X214237150Y-78271155D01*
X214311763Y-78451287D01*
X214349800Y-78642512D01*
X214349800Y-78837488D01*
X214311763Y-79028713D01*
X214237150Y-79208845D01*
X214128826Y-79370964D01*
X213990964Y-79508826D01*
X213828845Y-79617150D01*
X213648713Y-79691763D01*
X213457488Y-79729800D01*
X213262512Y-79729800D01*
X213071287Y-79691763D01*
X212891155Y-79617150D01*
X212729036Y-79508826D01*
X212591174Y-79370964D01*
X212482850Y-79208845D01*
X212408237Y-79028713D01*
X212370200Y-78837488D01*
X212370200Y-78642512D01*
X212408237Y-78451287D01*
X212482850Y-78271155D01*
X212591174Y-78109036D01*
X212729036Y-77971174D01*
X212891155Y-77862850D01*
X213071287Y-77788237D01*
X213262512Y-77750200D01*
X213457488Y-77750200D01*
X213648713Y-77788237D01*
X213648713Y-77788237D01*
G37*
G36*
X186374000Y-79328000D02*
X184974000Y-79328000D01*
X184974000Y-78528000D01*
X186374000Y-78528000D01*
X186374000Y-79328000D01*
X186374000Y-79328000D01*
G37*
G36*
X188004000Y-79305000D02*
X187154000Y-79305000D01*
X187154000Y-78405000D01*
X188004000Y-78405000D01*
X188004000Y-79305000D01*
X188004000Y-79305000D01*
G37*
G36*
X211231000Y-78957000D02*
X208631000Y-78957000D01*
X208631000Y-77857000D01*
X211231000Y-77857000D01*
X211231000Y-78957000D01*
X211231000Y-78957000D01*
G37*
G36*
X189819000Y-78022000D02*
X188919000Y-78022000D01*
X188919000Y-77172000D01*
X189819000Y-77172000D01*
X189819000Y-78022000D01*
X189819000Y-78022000D01*
G37*
G36*
X191319000Y-78022000D02*
X190419000Y-78022000D01*
X190419000Y-77172000D01*
X191319000Y-77172000D01*
X191319000Y-78022000D01*
X191319000Y-78022000D01*
G37*
G36*
X188004000Y-77805000D02*
X187154000Y-77805000D01*
X187154000Y-76905000D01*
X188004000Y-76905000D01*
X188004000Y-77805000D01*
X188004000Y-77805000D01*
G37*
G36*
X186374000Y-77428000D02*
X184974000Y-77428000D01*
X184974000Y-76628000D01*
X186374000Y-76628000D01*
X186374000Y-77428000D01*
X186374000Y-77428000D01*
G37*
G36*
X186568000Y-75595000D02*
X185468000Y-75595000D01*
X185468000Y-72995000D01*
X186568000Y-72995000D01*
X186568000Y-75595000D01*
X186568000Y-75595000D01*
G37*
G36*
X191468000Y-75595000D02*
X190368000Y-75595000D01*
X190368000Y-72995000D01*
X191468000Y-72995000D01*
X191468000Y-75595000D01*
X191468000Y-75595000D01*
G37*
G36*
X194278720Y-74878400D02*
X193579280Y-74878400D01*
X193579280Y-72578760D01*
X194278720Y-72578760D01*
X194278720Y-74878400D01*
X194278720Y-74878400D01*
G37*
G36*
X196818720Y-74878400D02*
X196119280Y-74878400D01*
X196119280Y-72578760D01*
X196818720Y-72578760D01*
X196818720Y-74878400D01*
X196818720Y-74878400D01*
G37*
G36*
X195548720Y-74878400D02*
X194849280Y-74878400D01*
X194849280Y-72578760D01*
X195548720Y-72578760D01*
X195548720Y-74878400D01*
X195548720Y-74878400D01*
G37*
G36*
X193008720Y-74878400D02*
X192309280Y-74878400D01*
X192309280Y-72578760D01*
X193008720Y-72578760D01*
X193008720Y-74878400D01*
X193008720Y-74878400D01*
G37*
G36*
X180628713Y-72708237D02*
X180808845Y-72782850D01*
X180970964Y-72891174D01*
X181108826Y-73029036D01*
X181217150Y-73191155D01*
X181291763Y-73371287D01*
X181329800Y-73562512D01*
X181329800Y-73757488D01*
X181291763Y-73948713D01*
X181217150Y-74128845D01*
X181108826Y-74290964D01*
X180970964Y-74428826D01*
X180808845Y-74537150D01*
X180628713Y-74611763D01*
X180437488Y-74649800D01*
X180242512Y-74649800D01*
X180051287Y-74611763D01*
X179871155Y-74537150D01*
X179709036Y-74428826D01*
X179571174Y-74290964D01*
X179462850Y-74128845D01*
X179388237Y-73948713D01*
X179350200Y-73757488D01*
X179350200Y-73562512D01*
X179388237Y-73371287D01*
X179462850Y-73191155D01*
X179571174Y-73029036D01*
X179709036Y-72891174D01*
X179871155Y-72782850D01*
X180051287Y-72708237D01*
X180242512Y-72670200D01*
X180437488Y-72670200D01*
X180628713Y-72708237D01*
X180628713Y-72708237D01*
G37*
G36*
X201574870Y-74251020D02*
X199226970Y-74251020D01*
X199226970Y-72652420D01*
X201574870Y-72652420D01*
X201574870Y-74251020D01*
X201574870Y-74251020D01*
G37*
G36*
X213523030Y-74251020D02*
X211175130Y-74251020D01*
X211175130Y-72652420D01*
X213523030Y-72652420D01*
X213523030Y-74251020D01*
X213523030Y-74251020D01*
G37*
G36*
X213523030Y-72252040D02*
X211175130Y-72252040D01*
X211175130Y-70653440D01*
X213523030Y-70653440D01*
X213523030Y-72252040D01*
X213523030Y-72252040D01*
G37*
G36*
X201574870Y-72252040D02*
X199226970Y-72252040D01*
X199226970Y-70653440D01*
X201574870Y-70653440D01*
X201574870Y-72252040D01*
X201574870Y-72252040D01*
G37*
G36*
X188802000Y-72201000D02*
X188002000Y-72201000D01*
X188002000Y-70801000D01*
X188802000Y-70801000D01*
X188802000Y-72201000D01*
X188802000Y-72201000D01*
G37*
G36*
X186902000Y-72201000D02*
X186102000Y-72201000D01*
X186102000Y-70801000D01*
X186902000Y-70801000D01*
X186902000Y-72201000D01*
X186902000Y-72201000D01*
G37*
G36*
X180628713Y-70168237D02*
X180808845Y-70242850D01*
X180970964Y-70351174D01*
X181108826Y-70489036D01*
X181217150Y-70651155D01*
X181291763Y-70831287D01*
X181329800Y-71022512D01*
X181329800Y-71217488D01*
X181291763Y-71408713D01*
X181217150Y-71588845D01*
X181108826Y-71750964D01*
X180970964Y-71888826D01*
X180808845Y-71997150D01*
X180628713Y-72071763D01*
X180437488Y-72109800D01*
X180242512Y-72109800D01*
X180051287Y-72071763D01*
X179871155Y-71997150D01*
X179709036Y-71888826D01*
X179571174Y-71750964D01*
X179462850Y-71588845D01*
X179388237Y-71408713D01*
X179350200Y-71217488D01*
X179350200Y-71022512D01*
X179388237Y-70831287D01*
X179462850Y-70651155D01*
X179571174Y-70489036D01*
X179709036Y-70351174D01*
X179871155Y-70242850D01*
X180051287Y-70168237D01*
X180242512Y-70130200D01*
X180437488Y-70130200D01*
X180628713Y-70168237D01*
X180628713Y-70168237D01*
G37*
G36*
X198164000Y-71939000D02*
X197314000Y-71939000D01*
X197314000Y-71039000D01*
X198164000Y-71039000D01*
X198164000Y-71939000D01*
X198164000Y-71939000D01*
G37*
G36*
X191738720Y-71896440D02*
X191039280Y-71896440D01*
X191039280Y-70597560D01*
X191738720Y-70597560D01*
X191738720Y-71896440D01*
X191738720Y-71896440D01*
G37*
G36*
X195548720Y-71896440D02*
X194849280Y-71896440D01*
X194849280Y-70597560D01*
X195548720Y-70597560D01*
X195548720Y-71896440D01*
X195548720Y-71896440D01*
G37*
G36*
X193008720Y-71896440D02*
X192309280Y-71896440D01*
X192309280Y-70597560D01*
X193008720Y-70597560D01*
X193008720Y-71896440D01*
X193008720Y-71896440D01*
G37*
G36*
X194278720Y-71896440D02*
X193579280Y-71896440D01*
X193579280Y-70597560D01*
X194278720Y-70597560D01*
X194278720Y-71896440D01*
X194278720Y-71896440D01*
G37*
G36*
X183446000Y-71366000D02*
X182846000Y-71366000D01*
X182846000Y-70366000D01*
X183446000Y-70366000D01*
X183446000Y-71366000D01*
X183446000Y-71366000D01*
G37*
G36*
X184946000Y-71366000D02*
X184346000Y-71366000D01*
X184346000Y-70366000D01*
X184946000Y-70366000D01*
X184946000Y-71366000D01*
X184946000Y-71366000D01*
G37*
G36*
X198164000Y-70439000D02*
X197314000Y-70439000D01*
X197314000Y-69539000D01*
X198164000Y-69539000D01*
X198164000Y-70439000D01*
X198164000Y-70439000D01*
G37*
G36*
X213523030Y-70250520D02*
X211175130Y-70250520D01*
X211175130Y-68651920D01*
X213523030Y-68651920D01*
X213523030Y-70250520D01*
X213523030Y-70250520D01*
G37*
G36*
X201574870Y-70250520D02*
X199226970Y-70250520D01*
X199226970Y-68651920D01*
X201574870Y-68651920D01*
X201574870Y-70250520D01*
X201574870Y-70250520D01*
G37*
G36*
X198639000Y-69006000D02*
X196839000Y-69006000D01*
X196839000Y-68006000D01*
X198639000Y-68006000D01*
X198639000Y-69006000D01*
X198639000Y-69006000D01*
G37*
G36*
X185104000Y-68787000D02*
X183704000Y-68787000D01*
X183704000Y-67987000D01*
X185104000Y-67987000D01*
X185104000Y-68787000D01*
X185104000Y-68787000D01*
G37*
G36*
X201574870Y-68254080D02*
X199226970Y-68254080D01*
X199226970Y-66655480D01*
X201574870Y-66655480D01*
X201574870Y-68254080D01*
X201574870Y-68254080D01*
G37*
G36*
X213523030Y-68254080D02*
X211175130Y-68254080D01*
X211175130Y-66655480D01*
X213523030Y-66655480D01*
X213523030Y-68254080D01*
X213523030Y-68254080D01*
G37*
G36*
X180628713Y-65088237D02*
X180808845Y-65162850D01*
X180970964Y-65271174D01*
X181108826Y-65409036D01*
X181217150Y-65571155D01*
X181291763Y-65751287D01*
X181329800Y-65942512D01*
X181329800Y-66137488D01*
X181291763Y-66328713D01*
X181217150Y-66508845D01*
X181108826Y-66670964D01*
X180970964Y-66808826D01*
X180808845Y-66917150D01*
X180628713Y-66991763D01*
X180437488Y-67029800D01*
X180242512Y-67029800D01*
X180051287Y-66991763D01*
X179871155Y-66917150D01*
X179709036Y-66808826D01*
X179571174Y-66670964D01*
X179462850Y-66508845D01*
X179388237Y-66328713D01*
X179350200Y-66137488D01*
X179350200Y-65942512D01*
X179388237Y-65751287D01*
X179462850Y-65571155D01*
X179571174Y-65409036D01*
X179709036Y-65271174D01*
X179871155Y-65162850D01*
X180051287Y-65088237D01*
X180242512Y-65050200D01*
X180437488Y-65050200D01*
X180628713Y-65088237D01*
X180628713Y-65088237D01*
G37*
G36*
X185104000Y-66887000D02*
X183704000Y-66887000D01*
X183704000Y-66087000D01*
X185104000Y-66087000D01*
X185104000Y-66887000D01*
X185104000Y-66887000D01*
G37*
G36*
X189514000Y-66820000D02*
X186914000Y-66820000D01*
X186914000Y-65720000D01*
X189514000Y-65720000D01*
X189514000Y-66820000D01*
X189514000Y-66820000D01*
G37*
G36*
X193008720Y-66298280D02*
X192309280Y-66298280D01*
X192309280Y-64999400D01*
X193008720Y-64999400D01*
X193008720Y-66298280D01*
X193008720Y-66298280D01*
G37*
G36*
X195548720Y-66298280D02*
X194849280Y-66298280D01*
X194849280Y-64999400D01*
X195548720Y-64999400D01*
X195548720Y-66298280D01*
X195548720Y-66298280D01*
G37*
G36*
X191738720Y-66298280D02*
X191039280Y-66298280D01*
X191039280Y-64999400D01*
X191738720Y-64999400D01*
X191738720Y-66298280D01*
X191738720Y-66298280D01*
G37*
G36*
X194278720Y-66298280D02*
X193579280Y-66298280D01*
X193579280Y-64999400D01*
X194278720Y-64999400D01*
X194278720Y-66298280D01*
X194278720Y-66298280D01*
G37*
G36*
X201574870Y-66252560D02*
X199226970Y-66252560D01*
X199226970Y-64653960D01*
X201574870Y-64653960D01*
X201574870Y-66252560D01*
X201574870Y-66252560D01*
G37*
G36*
X213523030Y-66252560D02*
X211175130Y-66252560D01*
X211175130Y-64653960D01*
X213523030Y-64653960D01*
X213523030Y-66252560D01*
X213523030Y-66252560D01*
G37*
G36*
X198639000Y-66106000D02*
X196839000Y-66106000D01*
X196839000Y-65106000D01*
X198639000Y-65106000D01*
X198639000Y-66106000D01*
X198639000Y-66106000D01*
G37*
G36*
X185104000Y-65612000D02*
X183704000Y-65612000D01*
X183704000Y-64812000D01*
X185104000Y-64812000D01*
X185104000Y-65612000D01*
X185104000Y-65612000D01*
G37*
G36*
X180628713Y-62548237D02*
X180808845Y-62622850D01*
X180970964Y-62731174D01*
X181108826Y-62869036D01*
X181217150Y-63031155D01*
X181291763Y-63211287D01*
X181329800Y-63402512D01*
X181329800Y-63597488D01*
X181291763Y-63788713D01*
X181217150Y-63968845D01*
X181108826Y-64130964D01*
X180970964Y-64268826D01*
X180808845Y-64377150D01*
X180628713Y-64451763D01*
X180437488Y-64489800D01*
X180242512Y-64489800D01*
X180051287Y-64451763D01*
X179871155Y-64377150D01*
X179709036Y-64268826D01*
X179571174Y-64130964D01*
X179462850Y-63968845D01*
X179388237Y-63788713D01*
X179350200Y-63597488D01*
X179350200Y-63402512D01*
X179388237Y-63211287D01*
X179462850Y-63031155D01*
X179571174Y-62869036D01*
X179709036Y-62731174D01*
X179871155Y-62622850D01*
X180051287Y-62548237D01*
X180242512Y-62510200D01*
X180437488Y-62510200D01*
X180628713Y-62548237D01*
X180628713Y-62548237D01*
G37*
G36*
X201574870Y-64253580D02*
X199226970Y-64253580D01*
X199226970Y-62654980D01*
X201574870Y-62654980D01*
X201574870Y-64253580D01*
X201574870Y-64253580D01*
G37*
G36*
X213523030Y-64253580D02*
X211175130Y-64253580D01*
X211175130Y-62654980D01*
X213523030Y-62654980D01*
X213523030Y-64253580D01*
X213523030Y-64253580D01*
G37*
G36*
X197268300Y-63867500D02*
X195974500Y-63867500D01*
X195974500Y-62370500D01*
X197268300Y-62370500D01*
X197268300Y-63867500D01*
X197268300Y-63867500D01*
G37*
G36*
X194169500Y-63867500D02*
X192875700Y-63867500D01*
X192875700Y-62370500D01*
X194169500Y-62370500D01*
X194169500Y-63867500D01*
X194169500Y-63867500D01*
G37*
G36*
X189514000Y-63820000D02*
X186914000Y-63820000D01*
X186914000Y-62720000D01*
X189514000Y-62720000D01*
X189514000Y-63820000D01*
X189514000Y-63820000D01*
G37*
G36*
X185104000Y-63712000D02*
X183704000Y-63712000D01*
X183704000Y-62912000D01*
X185104000Y-62912000D01*
X185104000Y-63712000D01*
X185104000Y-63712000D01*
G37*
M02*
