M48
;DRILL file {KiCad 5.0.2-bee76a0~70~ubuntu18.04.1} date Mo 23 Sep 2019 12:17:46 CEST
;FORMAT={-:-/ absolute / inch / decimal}
FMAT,2
INCH,TZ
T1C0.0130
T2C0.0400
%
G90
G05
T1
X7.18Y-3.225
X7.31Y-2.825
X7.31Y-3.14
X7.36Y-2.885
X7.36Y-2.915
X7.36Y-2.945
X7.36Y-2.97
X7.38Y-2.645
X7.42Y-2.64
X7.42Y-2.865
X7.4265Y-3.055
X7.455Y-2.64
X7.635Y-2.9027
X7.735Y-2.835
X7.735Y-3.165
X8.215Y-3.24
X8.245Y-3.245
X8.275Y-3.245
X8.295Y-2.81
X8.295Y-2.835
X8.3Y-2.785
X8.31Y-3.245
X8.335Y-3.22
T2
X7.1Y-2.8
X7.1Y-2.9
X8.4Y-3.1
X8.4Y-3.2
X7.1Y-2.5
X7.1Y-2.6
T0
M30
